<svg width="20" height="18" viewBox="0 0 20 18" fill="none" xmlns="http://www.w3.org/2000/svg">
<g clip-path="url(#clip0_313_1506)">
<path d="M4.71491 6H3.00088C2.29264 6 1.71582 6.57682 1.71582 7.28506V11.571C1.71582 11.8083 1.90748 12 2.14478 12C2.38208 12 2.57375 11.8083 2.57375 11.571V10.286H5.1457V11.571C5.1457 11.8083 5.33736 12 5.57466 12C5.81196 12 6.00362 11.8083 6.00362 11.571V7.28506C5.99997 6.57682 5.42315 6 4.71491 6ZM5.14205 9.42805H2.57192V7.28506C2.57192 7.04959 2.76358 6.8561 3.00088 6.8561H4.71491C4.95221 6.8561 5.14387 7.04776 5.14387 7.28506V9.42805H5.14205Z" fill="#2C44FF"/>
<path d="M10.2861 6H8.57203C8.33473 6 8.14307 6.19166 8.14307 6.42896V11.571C8.14307 11.8083 8.33473 12 8.57203 12C8.80933 12 9.00099 11.8083 9.00099 11.571V10.286H10.2861C11.4671 10.286 12.429 9.324 12.429 8.14299C12.429 6.96197 11.4671 6 10.2861 6ZM10.2861 9.42805H8.99917V6.85793H10.2842C10.9925 6.85793 11.5693 7.43474 11.5693 8.14299C11.5693 8.85123 10.9943 9.42805 10.2861 9.42805Z" fill="#2C44FF"/>
<path d="M17.5709 11.1421H16.2858V6.85793H17.5709C17.8082 6.85793 17.9998 6.66626 17.9998 6.42896C17.9998 6.19166 17.8082 6 17.5709 6H14.1428C13.9055 6 13.7139 6.19166 13.7139 6.42896C13.7139 6.66626 13.9055 6.85793 14.1428 6.85793H15.4279V11.1439H14.1428C13.9055 11.1439 13.7139 11.3356 13.7139 11.5729C13.7139 11.8102 13.9055 12.0018 14.1428 12.0018H17.5709C17.8082 12.0018 17.9998 11.8102 17.9998 11.5729C17.9998 11.3356 17.8082 11.1421 17.5709 11.1421Z" fill="#2C44FF"/>
<path d="M18.429 1.71403H11.7481L10.16 0.125951C9.99209 -0.0419836 9.72194 -0.0419836 9.554 0.125951L7.96593 1.71403H1.28506C0.576818 1.71403 0 2.29084 0 3.00091V4.28598C0 4.52327 0.191664 4.71494 0.428963 4.71494C0.666261 4.71494 0.857925 4.52145 0.857925 4.28598V3.00091C0.857925 2.76544 1.04959 2.57195 1.28689 2.57195H8.14481C8.25799 2.57195 8.36751 2.52632 8.44782 2.446L9.85701 1.03499L11.268 2.446C11.3483 2.52632 11.4579 2.57195 11.571 2.57195H18.429C18.6663 2.57195 18.8579 2.76361 18.8579 3.00091V4.28598C18.8579 4.52327 19.0496 4.71494 19.2869 4.71494C19.5242 4.71494 19.7159 4.52327 19.7159 4.28598V3.00091C19.714 2.29084 19.1372 1.71403 18.429 1.71403Z" fill="#2C44FF"/>
<path d="M19.2851 13.2852C19.0478 13.2852 18.8561 13.4768 18.8561 13.7141V14.9992C18.8561 15.2347 18.6644 15.4281 18.4271 15.4281H11.571C11.4579 15.4281 11.3483 15.4738 11.268 15.5541L9.85701 16.9651L8.446 15.5541C8.36568 15.4738 8.25616 15.4281 8.14299 15.4281H1.28506C1.04776 15.4281 0.8561 15.2365 0.8561 14.9992V13.7141C0.8561 13.4768 0.664436 13.2852 0.427137 13.2852C0.189839 13.2852 0 13.4786 0 13.7141V14.9992C0 15.7074 0.576818 16.2842 1.28506 16.2842H7.9641L9.55218 17.8723C9.63614 17.9563 9.74567 17.9983 9.85519 17.9983C9.96471 17.9983 10.0742 17.9563 10.1582 17.8723L11.7463 16.2842H18.4253C19.1336 16.2842 19.7104 15.7074 19.7104 14.9992V13.7141C19.714 13.4786 19.5224 13.2852 19.2851 13.2852Z" fill="#2C44FF"/>
</g>
<defs>
<clipPath id="clip0_313_1506">
<rect width="19.714" height="18" fill="white"/>
</clipPath>
</defs>
</svg>
