<svg width="60" height="50" viewBox="0 0 60 50" fill="none" xmlns="http://www.w3.org/2000/svg">
<path d="M0.574219 31.4739V35.4914C0.574219 37.4145 2.1436 38.9758 4.07661 38.9758H4.11489H55.9044C57.8374 38.9758 59.4068 37.4145 59.4068 35.4914V31.4739H0.574219Z" fill="#E3ECF7"/>
<path d="M55.9234 39.566H4.13397C3.80861 39.566 3.55981 39.3184 3.55981 38.9947C3.55981 38.6711 3.80861 38.4235 4.13397 38.4235H55.9234C57.5311 38.4235 58.8517 37.1097 58.8517 35.5104V32.064H1.14833V35.5104C1.14833 37.1097 2.4689 38.4235 4.07655 38.4235C4.40191 38.4235 4.65072 38.6711 4.65072 38.9947C4.65072 39.3184 4.40191 39.566 4.07655 39.566C1.83732 39.566 0 37.7381 0 35.4913V31.4738C0 31.1501 0.248804 30.9026 0.574163 30.9026H59.4258C59.7512 30.9026 60 31.1501 60 31.4738V35.4913C60 37.7381 58.1818 39.566 55.9234 39.566Z" fill="#2C44FF"/>
<path d="M56.1914 0.571289H3.80867C2.02876 0.571289 0.574219 2.01836 0.574219 3.78911V31.4738H59.4259V3.78911C59.4259 2.01836 57.9713 0.571289 56.1914 0.571289Z" fill="white"/>
<path d="M59.4258 32.0449H0.574163C0.248804 32.0449 0 31.7974 0 31.4737V3.78903C0 1.69459 1.70335 0 3.80861 0H56.1722C58.2775 0 60 1.69459 60 3.78903V31.4737C60 31.7974 59.7512 32.0449 59.4258 32.0449ZM1.14833 30.9025H58.8517V3.78903C58.8517 2.32292 57.6459 1.14242 56.1722 1.14242H3.80861C2.35407 1.14242 1.14833 2.34196 1.14833 3.78903V30.9025Z" fill="#2C44FF"/>
<path d="M30.0096 37.0337C31.0666 37.0337 31.9235 36.1812 31.9235 35.1296C31.9235 34.0781 31.0666 33.2256 30.0096 33.2256C28.9526 33.2256 28.0957 34.0781 28.0957 35.1296C28.0957 36.1812 28.9526 37.0337 30.0096 37.0337Z" fill="white"/>
<path d="M30.0095 37.6048C28.6315 37.6048 27.5215 36.5005 27.5215 35.1295C27.5215 33.7586 28.6315 32.6543 30.0095 32.6543C31.3875 32.6543 32.4976 33.7586 32.4976 35.1295C32.4976 36.5005 31.3684 37.6048 30.0095 37.6048ZM30.0095 33.7967C29.2631 33.7967 28.6698 34.387 28.6698 35.1295C28.6698 35.8721 29.2631 36.4624 30.0095 36.4624C30.7559 36.4624 31.3492 35.8721 31.3492 35.1295C31.3492 34.387 30.7368 33.7967 30.0095 33.7967Z" fill="#2C44FF"/>
<path d="M34.7371 38.9946H25.2635L24.0386 46.1919H35.9812L34.7371 38.9946Z" fill="white"/>
<path d="M35.9619 46.744H24.0193C23.847 46.744 23.6939 46.6678 23.5791 46.5345C23.4643 46.4012 23.426 46.2299 23.4451 46.0776L24.67 38.8803C24.7083 38.6137 24.9571 38.4043 25.2442 38.4043H34.7179C35.0049 38.4043 35.2346 38.6137 35.292 38.8803L36.5169 46.0776C36.536 46.2489 36.4978 46.4203 36.3829 46.5345C36.2681 46.6488 36.1341 46.744 35.9619 46.744ZM24.7083 45.6016H35.292L34.2585 39.5467H25.7609L24.7083 45.6016Z" fill="#2C44FF"/>
<path d="M42.0479 46.2681H17.9522C16.268 46.2681 14.9092 47.6199 14.9092 49.2955V49.4288H45.091V49.2955C45.091 47.6199 43.7321 46.2681 42.0479 46.2681Z" fill="#E3ECF7"/>
<path d="M45.0909 49.9999H14.9091C14.5838 49.9999 14.335 49.7524 14.335 49.4287V49.2954C14.335 47.3152 15.9618 45.6968 17.9522 45.6968H42.0479C44.0383 45.6968 45.6651 47.3152 45.6651 49.2954V49.4287C45.6651 49.7333 45.4163 49.9999 45.0909 49.9999ZM15.5216 48.8575H44.4785C44.268 47.7151 43.2536 46.8392 42.0479 46.8392H17.9522C16.7464 46.8392 15.7321 47.7151 15.5216 48.8575Z" fill="#2C44FF"/>
<path d="M50.0097 50.0001H10.0097C9.68435 50.0001 9.43555 49.7526 9.43555 49.4289C9.43555 49.1052 9.68435 48.8577 10.0097 48.8577H50.0097C50.3351 48.8577 50.5839 49.1052 50.5839 49.4289C50.5839 49.7526 50.3159 50.0001 50.0097 50.0001Z" fill="#2C44FF"/>
<path d="M10.0477 24.7335C9.83715 24.7335 9.64576 24.6193 9.53093 24.4289C9.37782 24.1433 9.49265 23.8005 9.77974 23.6673L19.751 18.6025C19.885 18.5454 20.019 18.5264 20.1529 18.5644L29.9137 21.0778L39.6936 16.1082C39.7319 16.0892 39.7702 16.0702 39.8084 16.0702L49.818 13.5187C50.1242 13.4426 50.4304 13.633 50.507 13.9376C50.5836 14.2423 50.3922 14.5469 50.086 14.6231L40.1721 17.1174L30.2582 22.1631C30.1242 22.2202 29.9903 22.2392 29.8563 22.2012L20.0955 19.6878L10.3156 24.6574C10.2199 24.7145 10.1434 24.7335 10.0477 24.7335Z" fill="#2C44FF"/>
<path d="M10.0478 26.6756C11.443 26.6756 12.5741 25.5503 12.5741 24.1623C12.5741 22.7742 11.443 21.6489 10.0478 21.6489C8.65255 21.6489 7.52148 22.7742 7.52148 24.1623C7.52148 25.5503 8.65255 26.6756 10.0478 26.6756Z" fill="#E3ECF7"/>
<path d="M10.0477 27.2467C8.34439 27.2467 6.94727 25.8568 6.94727 24.1622C6.94727 22.4676 8.34439 21.0776 10.0477 21.0776C11.7511 21.0776 13.1482 22.4676 13.1482 24.1622C13.1482 25.8568 11.7511 27.2467 10.0477 27.2467ZM10.0477 22.2391C8.97597 22.2391 8.09559 23.115 8.09559 24.1812C8.09559 25.2475 8.97597 26.1233 10.0477 26.1233C11.1195 26.1233 11.9999 25.2475 11.9999 24.1812C11.9999 23.115 11.1195 22.2391 10.0477 22.2391Z" fill="#2C44FF"/>
<path d="M20.019 21.6109C21.4142 21.6109 22.5453 20.4856 22.5453 19.0976C22.5453 17.7095 21.4142 16.5842 20.019 16.5842C18.6237 16.5842 17.4927 17.7095 17.4927 19.0976C17.4927 20.4856 18.6237 21.6109 20.019 21.6109Z" fill="#E3ECF7"/>
<path d="M20.0189 22.163C18.3156 22.163 16.9185 20.773 16.9185 19.0784C16.9185 17.3838 18.3156 15.9939 20.0189 15.9939C21.7223 15.9939 23.1194 17.3838 23.1194 19.0784C23.1194 20.773 21.7223 22.163 20.0189 22.163ZM20.0189 17.1554C18.9472 17.1554 18.0668 18.0312 18.0668 19.0975C18.0668 20.1637 18.9472 21.0396 20.0189 21.0396C21.0907 21.0396 21.9711 20.1637 21.9711 19.0975C21.9711 18.0312 21.0907 17.1554 20.0189 17.1554Z" fill="#2C44FF"/>
<path d="M30.0097 24.1814C31.405 24.1814 32.536 23.0562 32.536 21.6681C32.536 20.28 31.405 19.1548 30.0097 19.1548C28.6145 19.1548 27.4834 20.28 27.4834 21.6681C27.4834 23.0562 28.6145 24.1814 30.0097 24.1814Z" fill="#E3ECF7"/>
<path d="M30.0097 24.7335C28.3063 24.7335 26.9092 23.3436 26.9092 21.649C26.9092 19.9544 28.3063 18.5645 30.0097 18.5645C31.713 18.5645 33.1101 19.9544 33.1101 21.649C33.1101 23.3436 31.713 24.7335 30.0097 24.7335ZM30.0097 19.7259C28.9379 19.7259 28.0575 20.6018 28.0575 21.668C28.0575 22.7343 28.9379 23.6101 30.0097 23.6101C31.0814 23.6101 31.9618 22.7343 31.9618 21.668C31.9427 20.5827 31.0814 19.7259 30.0097 19.7259Z" fill="#2C44FF"/>
<path d="M39.9809 19.0977C41.3762 19.0977 42.5072 17.9724 42.5072 16.5844C42.5072 15.1963 41.3762 14.071 39.9809 14.071C38.5857 14.071 37.4546 15.1963 37.4546 16.5844C37.4546 17.9724 38.5857 19.0977 39.9809 19.0977Z" fill="#E3ECF7"/>
<path d="M39.9808 19.6688C38.2775 19.6688 36.8804 18.2789 36.8804 16.5843C36.8804 14.8897 38.2775 13.4998 39.9808 13.4998C41.6842 13.4998 43.0622 14.8897 43.0622 16.5843C43.0622 18.2789 41.6842 19.6688 39.9808 19.6688ZM39.9808 14.6422C38.9091 14.6422 38.0287 15.518 38.0287 16.5843C38.0287 17.6506 38.9091 18.5264 39.9808 18.5264C41.0526 18.5264 41.9139 17.6506 41.9139 16.5843C41.9139 15.518 41.0526 14.6422 39.9808 14.6422Z" fill="#2C44FF"/>
<path d="M49.9521 16.5843C51.3473 16.5843 52.4784 15.459 52.4784 14.0709C52.4784 12.6829 51.3473 11.5576 49.9521 11.5576C48.5569 11.5576 47.4258 12.6829 47.4258 14.0709C47.4258 15.459 48.5569 16.5843 49.9521 16.5843Z" fill="#E3ECF7"/>
<path d="M49.952 17.1554C48.2487 17.1554 46.8516 15.7655 46.8516 14.0709C46.8516 12.3763 48.2487 10.9863 49.952 10.9863C51.6554 10.9863 53.0525 12.3763 53.0525 14.0709C53.0525 15.7655 51.6554 17.1554 49.952 17.1554ZM49.952 12.1478C48.8803 12.1478 47.9999 13.0236 47.9999 14.0899C47.9999 15.1562 48.8803 16.032 49.952 16.032C51.0238 16.032 51.9042 15.1562 51.9042 14.0899C51.9042 13.0236 51.0238 12.1478 49.952 12.1478Z" fill="#2C44FF"/>
<path d="M12.9759 11.6527H10.2582C9.93289 11.6527 9.68408 11.4052 9.68408 11.0815C9.68408 10.7578 9.93289 10.5103 10.2582 10.5103H12.9951C13.3204 10.5103 13.5692 10.7578 13.5692 11.0815C13.5692 11.4052 13.3013 11.6527 12.9759 11.6527Z" fill="#2C44FF"/>
<path d="M46.4497 27.7989H43.7128C43.3875 27.7989 43.1387 27.5514 43.1387 27.2277C43.1387 26.904 43.3875 26.6565 43.7128 26.6565H46.4497C46.775 26.6565 47.0238 26.904 47.0238 27.2277C47.0238 27.5514 46.775 27.7989 46.4497 27.7989Z" fill="#2C44FF"/>
</svg>
