<svg width="57" height="60" viewBox="0 0 57 60" fill="none" xmlns="http://www.w3.org/2000/svg">
<path d="M56.507 9.89819V45.5423C56.507 48.6948 53.9563 51.2372 50.7934 51.2372H6.22386C3.06097 51.2372 0.510254 48.6948 0.510254 45.5423V9.89819H56.507Z" fill="white"/>
<path d="M50.7933 51.7288H6.22375C2.78878 51.7288 0 48.9491 0 45.5423V9.89826C0 9.62708 0.221062 9.40674 0.493138 9.40674H56.4899C56.7619 9.40674 56.983 9.62708 56.983 9.89826V45.5423C57 48.9491 54.2112 51.7288 50.7933 51.7288ZM1.00328 10.3898V45.5254C1.00328 48.3898 3.34994 50.7288 6.22375 50.7288H50.7933C53.6671 50.7288 56.0137 48.3898 56.0137 45.5254V10.3898H1.00328Z" fill="#2C44FF"/>
<path d="M50.7933 0.491455H15.7975H8.74048H6.22377C3.06088 0.491455 0.493164 3.05078 0.493164 6.20332V9.89823H56.4899V6.20332C56.5069 3.05078 53.9392 0.491455 50.7933 0.491455Z" fill="#E3ECF7"/>
<path d="M56.5069 10.3898H0.493138C0.221062 10.3898 0 10.1695 0 9.89831V6.20339C0 2.77966 2.78878 0 6.22375 0H8.74045C9.01253 0 9.23359 0.220339 9.23359 0.491525C9.23359 0.762712 9.01253 1 8.74045 1H6.22375C3.34994 1 1.00328 3.33898 1.00328 6.20339V9.40678H55.9967V6.20339C55.9967 3.33898 53.6501 1 50.7763 1H8.48538C8.21331 1 7.99224 0.779661 7.99224 0.508475C7.99224 0.237288 8.21331 0 8.48538 0H50.7763C54.2112 0 57 2.77966 57 6.20339V9.89831C57 10.1695 56.7789 10.3898 56.5069 10.3898Z" fill="#2C44FF"/>
<path d="M8.17948 7.28814C9.33463 7.28814 10.2711 6.35477 10.2711 5.2034C10.2711 4.05203 9.33463 3.11865 8.17948 3.11865C7.02433 3.11865 6.08789 4.05203 6.08789 5.2034C6.08789 6.35477 7.02433 7.28814 8.17948 7.28814Z" fill="white"/>
<path d="M8.17945 7.77974C6.75105 7.77974 5.59473 6.6272 5.59473 5.20347C5.59473 3.77974 6.75105 2.6272 8.17945 2.6272C9.60785 2.6272 10.7642 3.77974 10.7642 5.20347C10.7812 6.6272 9.60785 7.77974 8.17945 7.77974ZM8.17945 3.61025C7.2952 3.61025 6.59801 4.32211 6.59801 5.18652C6.59801 6.06788 7.31221 6.76279 8.17945 6.76279C9.04669 6.76279 9.7609 6.05093 9.7609 5.18652C9.7779 4.32211 9.0637 3.61025 8.17945 3.61025Z" fill="#2C44FF"/>
<path d="M14.8113 7.28814C15.9665 7.28814 16.9029 6.35477 16.9029 5.2034C16.9029 4.05203 15.9665 3.11865 14.8113 3.11865C13.6562 3.11865 12.7197 4.05203 12.7197 5.2034C12.7197 6.35477 13.6562 7.28814 14.8113 7.28814Z" fill="white"/>
<path d="M14.8113 7.77974C13.3829 7.77974 12.2266 6.6272 12.2266 5.20347C12.2266 3.77974 13.3829 2.6272 14.8113 2.6272C16.2397 2.6272 17.396 3.77974 17.396 5.20347C17.413 6.6272 16.2567 7.77974 14.8113 7.77974ZM14.8113 3.61025C13.927 3.61025 13.2298 4.32211 13.2298 5.18652C13.2298 6.06788 13.944 6.76279 14.8113 6.76279C15.6955 6.76279 16.3927 6.05093 16.3927 5.18652C16.4097 4.32211 15.6955 3.61025 14.8113 3.61025Z" fill="#2C44FF"/>
<path d="M21.4602 7.28814C22.6154 7.28814 23.5518 6.35477 23.5518 5.2034C23.5518 4.05203 22.6154 3.11865 21.4602 3.11865C20.3051 3.11865 19.3687 4.05203 19.3687 5.2034C19.3687 6.35477 20.3051 7.28814 21.4602 7.28814Z" fill="white"/>
<path d="M21.4602 7.77974C20.0318 7.77974 18.8755 6.6272 18.8755 5.20347C18.8755 3.77974 20.0318 2.6272 21.4602 2.6272C22.8886 2.6272 24.0449 3.77974 24.0449 5.20347C24.0449 6.6272 22.8886 7.77974 21.4602 7.77974ZM21.4602 3.61025C20.576 3.61025 19.8788 4.32211 19.8788 5.18652C19.8788 6.06788 20.593 6.76279 21.4602 6.76279C22.3275 6.76279 23.0417 6.05093 23.0417 5.18652C23.0417 4.32211 22.3275 3.61025 21.4602 3.61025Z" fill="#2C44FF"/>
<path d="M22.9222 40.5255L19.9634 40.1357C19.7593 40.1018 19.5893 39.9662 19.5212 39.7628C19.3002 38.9832 18.9771 38.2374 18.603 37.5425C18.501 37.356 18.518 37.1357 18.654 36.9662L20.4735 34.5933C20.6436 34.3899 20.6096 34.0848 20.4225 33.8984L17.8888 31.373C17.7017 31.1865 17.3957 31.1696 17.1916 31.3221L14.8109 33.1357C14.6409 33.2543 14.4198 33.2882 14.2328 33.1865C13.5356 32.7967 12.7874 32.4916 12.0051 32.2713C11.8011 32.2204 11.665 32.034 11.631 31.8306L11.2399 28.8815C11.2059 28.6103 10.9849 28.4238 10.7128 28.4238H7.14178C6.8697 28.4238 6.64864 28.6272 6.61463 28.8815L6.22352 31.8306C6.18951 32.034 6.05347 32.2035 5.84941 32.2713C5.06719 32.4916 4.31898 32.8137 3.62179 33.1865C3.43473 33.2882 3.21367 33.2713 3.04362 33.1357L0.662957 31.3221C0.594938 31.2713 0.526918 31.2374 0.441895 31.2204V46.1696C0.441895 48.9831 2.72053 51.2543 5.54333 51.2543H20.5415C20.5245 51.1696 20.4905 51.1018 20.4395 51.034L18.62 48.6611C18.501 48.4916 18.467 48.2713 18.569 48.0848C18.9601 47.3899 19.2662 46.6442 19.4872 45.8645C19.5383 45.6611 19.7253 45.5255 19.9294 45.4916L22.8882 45.1018C23.1603 45.0679 23.3473 44.8476 23.3473 44.5764V41.017C23.3813 40.7798 23.1943 40.5594 22.9222 40.5255ZM8.92728 48.8815C5.57734 48.8815 2.85657 46.1696 2.85657 42.8306C2.85657 39.4916 5.57734 36.7798 8.92728 36.7798C12.2772 36.7798 14.998 39.4916 14.998 42.8306C14.998 46.1696 12.2772 48.8815 8.92728 48.8815Z" fill="#E3ECF7"/>
<path d="M20.5588 51.7288H5.56056C2.4997 51.7288 0 49.2373 0 46.1864V31.2373C0 31.1017 0.0680191 30.9831 0.170048 30.8983C0.272076 30.8136 0.408115 30.7797 0.544153 30.8136C0.697196 30.8475 0.833234 30.8983 0.952267 31L3.33294 32.8136C3.34994 32.8305 3.40095 32.8305 3.41796 32.8305C4.14916 32.4237 4.93138 32.1017 5.73061 31.8644C5.76462 31.8644 5.78162 31.8305 5.78162 31.7966L6.17273 28.8475C6.24075 28.3729 6.64887 28 7.142 28H10.713C11.2061 28 11.6143 28.3559 11.6823 28.8475L12.0734 31.7966C12.0734 31.8305 12.1074 31.8475 12.1244 31.8644C12.9236 32.1017 13.7058 32.4237 14.4371 32.8305C14.4541 32.8475 14.5051 32.8475 14.5221 32.8136L16.9027 31C17.0728 30.8644 17.2768 30.7966 17.4979 30.7966C17.753 30.7966 18.0081 30.8983 18.1951 31.0847L20.7288 33.6102C21.0689 33.9492 21.1029 34.5085 20.8138 34.8983L18.9943 37.2712C18.9773 37.3051 18.9773 37.339 18.9773 37.3559C19.3854 38.0847 19.7085 38.8644 19.9466 39.661C19.9466 39.6949 19.9806 39.7119 20.0146 39.7119L22.9734 40.1017C23.4496 40.1695 23.8237 40.5763 23.8237 41.0678V44.6271C23.8237 45.1186 23.4666 45.5254 22.9734 45.5932L20.0146 45.983C19.9806 45.983 19.9636 46.017 19.9466 46.0339C19.7085 46.8305 19.3854 47.6102 18.9773 48.339C18.9603 48.3729 18.9603 48.4068 18.9943 48.4237L20.8138 50.7966C20.8989 50.9153 20.9669 51.0508 21.0009 51.2034C21.0349 51.339 21.0009 51.4746 20.9159 51.5763C20.8138 51.678 20.6948 51.7288 20.5588 51.7288ZM0.901253 32.0678V46.1864C0.901253 48.7458 2.99284 50.8305 5.56056 50.8305H19.7255L18.2971 48.9661C18.0591 48.661 18.0251 48.2373 18.2121 47.9153C18.5862 47.2373 18.8923 46.5254 19.0964 45.7797C19.1984 45.4068 19.5215 45.1356 19.9126 45.0847L22.8714 44.6949C22.9054 44.6949 22.9394 44.661 22.9394 44.6102V41.0508C22.9394 41.0169 22.9054 40.9661 22.8714 40.9661L19.9126 40.5763C19.5215 40.5254 19.2154 40.2542 19.0964 39.8814C18.8753 39.1356 18.5862 38.4237 18.2121 37.7458C18.0251 37.4068 18.0591 37 18.2971 36.6949L20.1166 34.322C20.1337 34.2881 20.1337 34.2373 20.1166 34.2203L17.5659 31.6949C17.5489 31.678 17.5149 31.678 17.5149 31.678C17.4979 31.678 17.4809 31.678 17.4639 31.6949L15.0832 33.5085C14.7771 33.7288 14.352 33.7627 14.0289 33.5932C13.3487 33.2203 12.6345 32.9322 11.8863 32.7119C11.5122 32.6102 11.2402 32.2881 11.1891 31.8983L10.798 28.9492C10.798 28.9153 10.764 28.8814 10.713 28.8814H7.142C7.108 28.8814 7.05698 28.9153 7.05698 28.9492L6.66587 31.8983C6.61486 32.2881 6.34278 32.5932 5.96868 32.7119C5.22047 32.9322 4.50626 33.2203 3.82607 33.5932C3.50298 33.7797 3.06086 33.7458 2.77178 33.5085L0.901253 32.0678ZM8.92751 49.339C5.3395 49.339 2.41468 46.4237 2.41468 42.8475C2.41468 39.2712 5.3395 36.3559 8.92751 36.3559C12.5155 36.3559 15.4403 39.2712 15.4403 42.8475C15.4573 46.4068 12.5155 49.339 8.92751 49.339ZM8.92751 37.2203C5.83264 37.2203 3.29893 39.7288 3.29893 42.8305C3.29893 45.9322 5.81563 48.4407 8.92751 48.4407C12.0224 48.4407 14.5561 45.9322 14.5561 42.8305C14.5561 39.7458 12.0224 37.2203 8.92751 37.2203Z" fill="#2C44FF"/>
<path d="M21.1878 14.9831H6.51267C6.24059 14.9831 6.01953 14.7627 6.01953 14.4915C6.01953 14.2203 6.24059 14 6.51267 14H21.1878C21.4599 14 21.6809 14.2203 21.6809 14.4915C21.6979 14.7627 21.4769 14.9831 21.1878 14.9831Z" fill="#2C44FF"/>
<path d="M21.1878 17.9831H6.51267C6.24059 17.9831 6.01953 17.7627 6.01953 17.4915C6.01953 17.2203 6.24059 17 6.51267 17H21.1878C21.4599 17 21.6809 17.2203 21.6809 17.4915C21.6979 17.7627 21.4769 17.9831 21.1878 17.9831Z" fill="#2C44FF"/>
<path d="M18.1779 20.9831H6.51267C6.24059 20.9831 6.01953 20.7627 6.01953 20.4915C6.01953 20.2203 6.24059 20 6.51267 20H18.1779C18.45 20 18.6711 20.2203 18.6711 20.4915C18.6881 20.7627 18.467 20.9831 18.1779 20.9831Z" fill="#2C44FF"/>
<path d="M15.1681 23.9831H6.51267C6.24059 23.9831 6.01953 23.7627 6.01953 23.4915C6.01953 23.2203 6.24059 23 6.51267 23H15.1681C15.4402 23 15.6612 23.2203 15.6612 23.4915C15.6782 23.7627 15.4572 23.9831 15.1681 23.9831Z" fill="#2C44FF"/>
<path d="M38.1419 39.2881C45.3357 39.2881 51.1675 33.4754 51.1675 26.3051C51.1675 19.1347 45.3357 13.322 38.1419 13.322C30.948 13.322 25.1162 19.1347 25.1162 26.3051C25.1162 33.4754 30.948 39.2881 38.1419 39.2881Z" fill="white"/>
<path d="M28.5681 35.8474C26.0174 33.305 24.606 29.9152 24.606 26.305C24.606 18.8643 30.6767 12.8135 38.1418 12.8135C41.7638 12.8135 45.1477 14.2203 47.7154 16.7626C50.2832 19.305 51.6776 22.6948 51.6776 26.305C51.6776 29.9152 50.2662 33.2881 47.7154 35.8474C45.1647 38.3897 41.7638 39.7965 38.1418 39.7965C34.5197 39.7965 31.1188 38.3897 28.5681 35.8474ZM47.0012 17.4745C44.6376 15.1186 41.4917 13.8135 38.1418 13.8135C31.2378 13.8135 25.6092 19.4236 25.6092 26.305C25.6092 29.644 26.9186 32.7796 29.2823 35.1355C31.6459 37.4914 34.7918 38.7965 38.1418 38.7965C41.4917 38.7965 44.6376 37.4914 47.0012 35.1355C49.3649 32.7796 50.6743 29.644 50.6743 26.305C50.6743 22.966 49.3649 19.8304 47.0012 17.4745Z" fill="#2C44FF"/>
<path d="M39.5872 43.2031V39.2031C38.6349 39.3048 37.6656 39.3048 36.7134 39.2031V43.2031H39.5872Z" fill="white"/>
<path d="M36.3391 43.5591C36.2541 43.4744 36.186 43.3388 36.186 43.2032V39.2032C36.186 39.0676 36.2541 38.932 36.3561 38.8303C36.4581 38.7286 36.6112 38.6947 36.7472 38.7117C37.6655 38.8134 38.6007 38.8134 39.519 38.7117C39.655 38.6947 39.8081 38.7456 39.9101 38.8303C40.0121 38.932 40.0801 39.0676 40.0801 39.2032V43.2032C40.0801 43.4744 39.8591 43.6947 39.587 43.6947H36.7132C36.5601 43.6947 36.4411 43.6439 36.3391 43.5591ZM37.2063 39.7456V42.6947H39.0768V39.7456C38.4477 39.7964 37.8185 39.7964 37.2063 39.7456Z" fill="#2C44FF"/>
<path d="M40.8966 56.7625V51.932V48.3558V43.8981C40.8966 43.5083 40.5735 43.1863 40.1824 43.1863H36.0672C35.6761 43.1863 35.353 43.5083 35.353 43.8981V56.7625C35.353 58.271 36.5774 59.4914 38.0908 59.4914H38.1418C39.6722 59.5083 40.8966 58.271 40.8966 56.7625Z" fill="#E3ECF7"/>
<path d="M35.8121 59.0508C35.217 58.4575 34.8599 57.6609 34.8599 56.7626V43.8982C34.8599 43.2372 35.404 42.6948 36.0672 42.6948H40.1824C40.8455 42.6948 41.3897 43.2372 41.3897 43.8982V52.1863C41.3897 52.4575 41.1686 52.6779 40.8966 52.6779C40.6245 52.6779 40.4034 52.4575 40.4034 52.1863V43.8982C40.4034 43.7796 40.3184 43.6948 40.1994 43.6948H36.0842C35.9652 43.6948 35.8801 43.7796 35.8801 43.8982V56.7626C35.8801 57.9999 36.8834 58.9999 38.1248 58.9999H38.1758C39.4171 58.9999 40.4204 57.9999 40.4204 56.7626V51.9321C40.4204 51.6609 40.6415 51.4406 40.9136 51.4406C41.1856 51.4406 41.4067 51.6609 41.4067 51.9321V56.7626C41.4067 58.5423 39.9443 59.9999 38.1588 59.9999H38.0908C37.2065 59.9999 36.3903 59.644 35.8121 59.0508Z" fill="#2C44FF"/>
<path d="M47.2218 24.8814L45.3003 24.6271C45.1642 24.6102 45.0622 24.5085 45.0112 24.3898C44.8581 23.8814 44.6541 23.4068 44.416 22.9492C44.348 22.8305 44.365 22.678 44.45 22.5763L45.6234 21.0339C45.7254 20.8983 45.7084 20.7119 45.5894 20.5763L43.9399 18.9322C43.8209 18.8136 43.6168 18.7966 43.4808 18.8983L41.9333 20.0678C41.8313 20.1525 41.6783 20.1695 41.5592 20.1017C41.1001 19.8475 40.624 19.6441 40.1138 19.5085C39.9778 19.4746 39.8928 19.3559 39.8757 19.2203L39.6207 17.3051C39.6037 17.1356 39.4506 17 39.2806 17H36.9509C36.7809 17 36.6278 17.1356 36.6108 17.3051L36.3558 19.2203C36.3388 19.3559 36.2367 19.4576 36.1177 19.5085C35.6075 19.661 35.1314 19.8644 34.6723 20.1017C34.5533 20.1695 34.4002 20.1525 34.2982 20.0678L32.7507 18.8983C32.6147 18.7966 32.4277 18.8136 32.2916 18.9322L30.6422 20.5763C30.5231 20.6949 30.5061 20.8983 30.6081 21.0339L31.7815 22.5763C31.8665 22.678 31.8835 22.8305 31.8155 22.9492C31.5604 23.4068 31.3564 23.8814 31.2203 24.3898C31.1863 24.5254 31.0673 24.6102 30.9312 24.6271L29.0097 24.8814C28.8397 24.8983 28.7036 25.0508 28.7036 25.2203V27.5424C28.7036 27.7119 28.8397 27.8644 29.0097 27.8814L30.9312 28.1356C31.0673 28.1525 31.1693 28.2542 31.2203 28.3729C31.3734 28.8814 31.5774 29.3559 31.8155 29.8136C31.8835 29.9322 31.8665 30.0847 31.7815 30.1864L30.6081 31.7288C30.5061 31.8644 30.5231 32.0508 30.6422 32.1864L32.2916 33.8305C32.4107 33.9492 32.6147 33.9661 32.7507 33.8644L34.2982 32.6949C34.4002 32.6102 34.5533 32.5932 34.6723 32.661C35.1314 32.9153 35.6075 33.1186 36.1177 33.2542C36.2537 33.2881 36.3388 33.4068 36.3558 33.5424L36.6108 35.4576C36.6278 35.6271 36.7809 35.7627 36.9509 35.7627H39.2806C39.4506 35.7627 39.6037 35.6271 39.6207 35.4576L39.8757 33.5424C39.8928 33.4068 39.9948 33.3051 40.1138 33.2542C40.624 33.1017 41.1001 32.8983 41.5592 32.661C41.6783 32.5932 41.8313 32.6102 41.9333 32.6949L43.4808 33.8644C43.6168 33.9661 43.8038 33.9492 43.9399 33.8305L45.5894 32.1864C45.7084 32.0678 45.7254 31.8644 45.6234 31.7288L44.45 30.1864C44.365 30.0847 44.348 29.9322 44.416 29.8136C44.6711 29.3559 44.8752 28.8814 45.0112 28.3729C45.0452 28.2373 45.1642 28.1525 45.3003 28.1356L47.2218 27.8814C47.3919 27.8644 47.5279 27.7119 47.5279 27.5424V25.2203C47.5279 25.0508 47.4089 24.9153 47.2218 24.8814ZM38.1413 30.322C35.9647 30.322 34.1962 28.5593 34.1962 26.3898C34.1962 24.2203 35.9647 22.4576 38.1413 22.4576C40.3179 22.4576 42.0864 24.2203 42.0864 26.3898C42.0864 28.5593 40.3179 30.322 38.1413 30.322Z" fill="#E3ECF7"/>
<path d="M39.2978 36.2373H36.9682C36.543 36.2373 36.1859 35.9152 36.1349 35.5084L35.8969 33.6949C35.4377 33.5593 34.9786 33.3728 34.5365 33.1356L33.0741 34.2542C32.921 34.3728 32.751 34.4237 32.5639 34.4237C32.3429 34.4237 32.1218 34.3389 31.9688 34.1695L30.3193 32.5254C30.0132 32.2203 29.9962 31.7457 30.2513 31.4237L31.3736 29.9661C31.1355 29.5423 30.9485 29.0847 30.8124 28.6101L28.9929 28.3728C28.5678 28.322 28.2617 27.9661 28.2617 27.5423V25.2203C28.2617 24.7966 28.5848 24.4406 28.9929 24.3898L30.8124 24.1525C30.9485 23.6949 31.1355 23.2373 31.3736 22.7966L30.2513 21.3389C29.9962 21 30.0302 20.5254 30.3193 20.2373L31.9688 18.5932C32.1218 18.4406 32.3429 18.3389 32.5639 18.3389C32.751 18.3389 32.938 18.4067 33.0741 18.5084L34.5365 19.6271C34.9616 19.3898 35.4207 19.2034 35.8969 19.0678L36.1349 17.2542C36.1859 16.8305 36.56 16.5254 36.9682 16.5254H39.2978C39.7229 16.5254 40.08 16.8474 40.1311 17.2542L40.3691 19.0678C40.8282 19.2034 41.2874 19.3898 41.7295 19.6271L43.1919 18.5084C43.345 18.3898 43.515 18.3389 43.7021 18.3389C43.9231 18.3389 44.1442 18.4237 44.2972 18.5932L45.9467 20.2373C46.2528 20.5423 46.2698 21.0169 46.0147 21.3389L44.8924 22.7966C45.1305 23.2203 45.3175 23.6779 45.4535 24.1525L47.2731 24.3898C47.6982 24.4406 48.0043 24.8135 48.0043 25.2203V27.5423C48.0043 27.9661 47.6812 28.322 47.2731 28.3728L45.4535 28.6101C45.3175 29.0678 45.1305 29.5254 44.8924 29.9661L46.0147 31.4237C46.2698 31.7627 46.2358 32.2373 45.9467 32.5254L44.2972 34.1695C44.1442 34.322 43.9231 34.4237 43.7021 34.4237C43.515 34.4237 43.3279 34.3559 43.1919 34.2542L41.7295 33.1356C41.3044 33.3728 40.8453 33.5593 40.3691 33.6949L40.1311 35.5084C40.08 35.9322 39.7229 36.2373 39.2978 36.2373ZM37.1212 35.2373H39.1618L39.3998 33.4576C39.4509 33.1356 39.6719 32.8474 39.995 32.7627C40.4541 32.6271 40.9133 32.4406 41.3384 32.2034C41.6275 32.0508 42.0016 32.0678 42.2566 32.2712L43.685 33.3559L45.1305 31.9152L44.0421 30.4915C43.8381 30.2203 43.8041 29.8644 43.9741 29.5762C44.2122 29.1525 44.3992 28.6949 44.5353 28.2373C44.6203 27.9152 44.9094 27.6779 45.2325 27.644L47.018 27.4067V25.3728L45.2325 25.1356C44.8924 25.0847 44.6203 24.8644 44.5353 24.5423C44.3992 24.0847 44.2122 23.6271 43.9741 23.2034C43.8211 22.9152 43.8381 22.5593 44.0421 22.2881L45.1305 20.8644L43.685 19.4237L42.2566 20.5084C42.0016 20.7118 41.6275 20.7288 41.3384 20.5762C40.9133 20.3389 40.4541 20.1525 39.995 20.0169C39.6719 19.9322 39.4339 19.644 39.3998 19.322L39.1618 17.5423H37.1212L36.8831 19.322C36.8321 19.661 36.6111 19.9322 36.288 20.0169C35.8288 20.1525 35.3697 20.3389 34.9446 20.5762C34.6555 20.7288 34.2814 20.7118 34.0263 20.5084L32.5979 19.4237L31.1525 20.8644L32.2408 22.2881C32.4449 22.5593 32.4789 22.9152 32.3089 23.2034C32.0708 23.6271 31.8837 24.0847 31.7477 24.5423C31.6627 24.8644 31.3736 25.1017 31.0505 25.1356L29.265 25.3728V27.4067L31.0505 27.644C31.3906 27.6949 31.6627 27.9152 31.7477 28.2373C31.8837 28.6949 32.0708 29.1525 32.3089 29.5762C32.4619 29.8644 32.4449 30.2203 32.2408 30.4915L31.1525 31.9152L32.5979 33.3559L34.0263 32.2712C34.2814 32.0678 34.6555 32.0508 34.9446 32.2034C35.3697 32.4406 35.8288 32.6271 36.288 32.7627C36.6111 32.8474 36.8491 33.1356 36.8831 33.4576L37.1212 35.2373ZM38.1415 30.8135C35.6928 30.8135 33.7032 28.8305 33.7032 26.3898C33.7032 23.9491 35.6928 21.9661 38.1415 21.9661C40.5902 21.9661 42.5797 23.9491 42.5797 26.3898C42.5797 28.8305 40.5902 30.8135 38.1415 30.8135ZM38.1415 22.9491C36.237 22.9491 34.7065 24.4915 34.7065 26.3728C34.7065 28.2542 36.254 29.7966 38.1415 29.7966C40.046 29.7966 41.5765 28.2542 41.5765 26.3728C41.5765 24.4915 40.046 22.9491 38.1415 22.9491Z" fill="#2C44FF"/>
</svg>
