<svg width="14" height="18" viewBox="0 0 14 18" fill="none" xmlns="http://www.w3.org/2000/svg">
<g clip-path="url(#clip0_313_1501)">
<path d="M8.03724 14.1439H6.59178V8.35731C6.59178 8.28198 6.56353 8.21135 6.51645 8.15014L4.9109 6.21972C4.82145 6.11143 4.67549 6.07376 4.54365 6.12556L2.93811 6.7706C2.77332 6.83652 2.69327 7.02485 2.75919 7.18964C2.82511 7.35443 3.01344 7.43448 3.17823 7.36856L4.56719 6.81297L5.95145 8.47031V14.1392H4.50128H4.14344C3.89861 14.1392 3.69615 13.9414 3.69615 13.6919V13.1834C3.69615 12.1381 3.24886 11.1399 2.42961 10.3772C1.17719 9.20952 0.532144 7.55689 0.659269 5.84306C0.852311 3.19226 2.98519 0.969919 5.62657 0.678002C5.83845 0.65446 6.05503 0.640335 6.26691 0.640335C6.44582 0.640335 6.58707 0.494376 6.58707 0.320167C6.58707 0.145959 6.44582 0 6.26691 0C6.03149 0 5.79136 0.014125 5.55595 0.0376668C2.61323 0.362543 0.23081 2.83913 0.0189342 5.80068C-0.122316 7.70756 0.59806 9.54852 1.99644 10.848C2.67915 11.4884 3.05582 12.317 3.05582 13.1834V13.6966C3.05582 14.1533 3.33832 14.5441 3.73853 14.7042C3.71498 14.7795 3.69615 14.8595 3.69615 14.9443C3.69615 15.1279 3.75736 15.2927 3.86094 15.4245C3.75736 15.5611 3.69615 15.7259 3.69615 15.9048C3.69615 16.2909 3.97394 16.6157 4.34119 16.6911V17.0442C4.34119 17.5668 4.76965 17.9953 5.29228 17.9953H7.24624C7.76887 17.9953 8.19733 17.5668 8.19733 17.0442V16.6911C8.56458 16.6157 8.84237 16.2909 8.84237 15.9048C8.84237 15.7212 8.78116 15.5564 8.67758 15.4245C8.78116 15.288 8.84237 15.1232 8.84237 14.9443C8.83766 14.5017 8.47983 14.1439 8.03724 14.1439ZM8.03724 14.7842C8.1267 14.7842 8.19733 14.8548 8.19733 14.9443C8.19733 15.0337 8.1267 15.1044 8.03724 15.1044H4.50128C4.41182 15.1044 4.34119 15.0337 4.34119 14.9443C4.34119 14.8548 4.41182 14.7842 4.50128 14.7842H8.03724ZM7.24624 17.355H5.29228C5.12278 17.355 4.98624 17.2184 4.98624 17.0489V16.7146H7.55699V17.0489C7.55228 17.2184 7.41574 17.355 7.24624 17.355ZM8.03724 16.0696H4.50128C4.41182 16.0696 4.34119 15.999 4.34119 15.9095C4.34119 15.82 4.41182 15.7494 4.50128 15.7494H8.03724C8.1267 15.7494 8.19733 15.82 8.19733 15.9095C8.19733 15.999 8.12199 16.0696 8.03724 16.0696Z" fill="#2C44FF"/>
<path d="M2.4344 2.99931C2.04361 3.43719 1.73286 3.93156 1.51157 4.47302C1.44565 4.63782 1.52098 4.82615 1.68578 4.89207C1.72344 4.90619 1.76582 4.91561 1.80819 4.91561C1.93532 4.91561 2.05303 4.84027 2.10482 4.71786C2.29786 4.24702 2.57095 3.81386 2.91465 3.42777C3.03236 3.29594 3.02295 3.09348 2.89111 2.97577C2.75457 2.85806 2.55211 2.86748 2.4344 2.99931Z" fill="#2C44FF"/>
<path d="M4.48723 1.60072C4.10115 1.74197 3.72919 1.93501 3.38548 2.16572C3.23952 2.26459 3.20185 2.46705 3.30073 2.61301C3.36194 2.70718 3.46552 2.75426 3.5691 2.75426C3.63031 2.75426 3.69152 2.73543 3.74802 2.69776C4.04935 2.4953 4.37423 2.3258 4.71323 2.20339C4.87802 2.14218 4.96748 1.95855 4.90156 1.78905C4.84036 1.62426 4.65673 1.53951 4.48723 1.60072Z" fill="#2C44FF"/>
<path d="M13.2398 4.18579C12.929 3.87504 12.5335 3.66316 12.1051 3.56429C12.1522 3.03695 11.9779 2.51904 11.6107 2.15179C11.6013 2.13295 11.5919 2.11883 11.5777 2.09999C11.1869 1.70449 10.6408 1.55383 10.1276 1.6527C10.1181 1.27132 9.96748 0.908782 9.69911 0.640407C9.11527 0.0565721 7.96173 0.0989472 7.3261 0.734574C7.26489 0.795782 7.23193 0.875824 7.23193 0.960574V12.5337C7.23193 12.6561 7.29785 12.7644 7.40614 12.8209C7.67923 12.9621 8.01352 13.0469 8.33839 13.0469C8.71977 13.0469 9.09644 12.9339 9.37423 12.6608C9.43544 12.5996 9.49194 12.5337 9.53902 12.4678C10.217 12.7597 11.0363 12.5996 11.5919 12.044C12.0909 11.5449 12.2699 10.8293 12.0862 10.1889C12.1286 10.1513 12.171 10.1183 12.2087 10.0759C12.7595 9.52505 12.9384 8.72464 12.6889 8.03251C12.8584 7.92892 13.0138 7.80651 13.1503 7.66526C14.1344 6.6765 14.172 5.11804 13.2398 4.18579ZM12.2981 7.50046C11.9968 7.27446 11.6342 7.14263 11.2482 7.13792C10.7773 7.14263 10.33 7.31684 9.99573 7.64642C9.86861 7.77355 9.86861 7.97601 9.99102 8.10313C10.1181 8.23026 10.3206 8.23026 10.4477 8.10784C10.8856 7.67938 11.5824 7.67938 12.0203 8.10313C12.2699 8.58809 12.1663 9.20018 11.7519 9.61451C11.686 9.68043 11.6107 9.74164 11.5212 9.79814C11.3894 9.8876 11.3376 10.0571 11.4035 10.2031C11.6154 10.6551 11.5071 11.2106 11.1352 11.5826C10.7632 11.9546 10.2264 12.0581 9.78386 11.8698L9.78856 11.4508C9.79327 10.7539 9.22827 10.1842 8.53144 10.1795C8.35723 10.1795 8.21127 10.3208 8.21127 10.4997C8.21127 10.6786 8.35252 10.8198 8.53144 10.8246C8.87515 10.8246 9.15294 11.1071 9.14823 11.4508L9.14352 11.8698C9.14352 11.8745 9.14352 11.8745 9.14352 11.8792C9.13881 11.8886 9.1294 11.8981 9.11998 11.9075C9.06819 12.0205 8.99756 12.1241 8.91281 12.2088C8.6774 12.4489 8.2301 12.4536 7.86756 12.3312V1.11124C8.26777 0.805199 8.92223 0.786365 9.23298 1.10182C9.45427 1.32312 9.52961 1.65741 9.43073 1.98228C9.38365 2.01995 9.33656 2.05291 9.29419 2.09529C8.98815 2.39662 8.81865 2.80154 8.81865 3.23C8.81394 3.65846 8.97873 4.06337 9.28006 4.36942C9.34127 4.43062 9.42602 4.46358 9.51077 4.46358C9.59081 4.46358 9.67556 4.43062 9.73677 4.36942C9.8639 4.24229 9.8639 4.03983 9.74148 3.91271C9.56256 3.72908 9.46369 3.48896 9.46369 3.23C9.46369 2.97104 9.56727 2.73091 9.7509 2.55199C9.88744 2.42016 10.0475 2.33541 10.2217 2.29774C10.5654 2.26008 10.9044 2.36837 11.1493 2.6132C11.4365 2.90041 11.5401 3.32887 11.4129 3.74791C11.3847 3.84208 11.4035 3.94096 11.46 4.021C11.5165 4.10104 11.606 4.15283 11.7002 4.15754C12.1192 4.18579 12.4912 4.35529 12.7784 4.6425C13.4611 5.32521 13.4234 6.47405 12.6936 7.20384C12.5806 7.32155 12.4441 7.41571 12.2981 7.50046Z" fill="#2C44FF"/>
</g>
<defs>
<clipPath id="clip0_313_1501">
<rect width="13.9132" height="18" fill="white"/>
</clipPath>
</defs>
</svg>
