<svg width="14" height="18" viewBox="0 0 14 18" fill="none" xmlns="http://www.w3.org/2000/svg">
<g clip-path="url(#clip0_313_1487)">
<path d="M13.8221 3.6433L7.06731 0.0384852C6.96635 -0.014456 6.84615 -0.014456 6.74519 0.0384852L0.173077 3.64811C0.0673077 3.70587 0 3.81656 0 3.94169V8.64865C0.00480769 12.5182 2.29327 16.0219 5.83654 17.5716L6.75 17.9711C6.83654 18.0096 6.93269 18.0096 7.01923 17.9711L8.04808 17.5283C11.6587 16.0123 14.0048 12.4748 14.0048 8.5572V3.94169C14 3.81656 13.9327 3.70105 13.8221 3.6433ZM13.3269 8.5572C13.3269 12.2053 11.1394 15.4973 7.77885 16.9075L6.88462 17.2925L6.10577 16.9508C2.80769 15.5069 0.673077 12.2486 0.673077 8.64383V4.13902L6.90865 0.717095L13.3269 4.13902V8.5572Z" fill="#2C44FF"/>
<path d="M4.42773 8.43206C4.30754 8.29249 4.096 8.27324 3.95177 8.39356C3.81235 8.51388 3.79312 8.72565 3.91331 8.87003L5.69215 10.954C5.81235 11.0936 6.01908 11.1128 6.1585 10.9973L10.2979 7.62832C10.4422 7.51281 10.4662 7.30105 10.346 7.15666C10.2306 7.01228 10.0191 6.98821 9.87485 7.10853L5.99023 10.2706L4.42773 8.43206Z" fill="#2C44FF"/>
</g>
<defs>
<clipPath id="clip0_313_1487">
<rect width="14" height="18" fill="white"/>
</clipPath>
</defs>
</svg>
