<svg width="60" height="60" viewBox="0 0 60 60" fill="none" xmlns="http://www.w3.org/2000/svg">
<g clip-path="url(#clip0_390_706)">
<path d="M30 44.044C37.7563 44.044 44.044 37.7563 44.044 30C44.044 22.2438 37.7563 15.9561 30 15.9561C22.2438 15.9561 15.9561 22.2438 15.9561 30C15.9561 37.7563 22.2438 44.044 30 44.044Z" fill="white"/>
<path d="M29.9999 44.5517C21.9795 44.5517 15.4482 38.0204 15.4482 30.0001C15.4482 21.9798 21.9795 15.4485 29.9999 15.4485C38.0202 15.4485 44.5515 21.9798 44.5515 30.0001C44.5515 38.0204 38.0202 44.5517 29.9999 44.5517ZM29.9999 16.4637C22.5379 16.4637 16.4635 22.5382 16.4635 30.0001C16.4635 37.462 22.5379 43.5365 29.9999 43.5365C37.4618 43.5365 43.5362 37.462 43.5362 30.0001C43.5362 22.5382 37.4618 16.4637 29.9999 16.4637Z" fill="#2C44FF"/>
<path d="M29.9997 44.5517C27.8508 44.5517 25.8711 42.995 24.399 40.1693C22.9946 37.4451 22.2163 33.841 22.2163 30.0001C22.2163 26.1591 22.9946 22.5551 24.399 19.8309C25.8711 17.0052 27.8508 15.4485 29.9997 15.4485C32.1486 15.4485 34.1283 17.0052 35.6004 19.8309C37.0048 22.5551 37.7831 26.1591 37.7831 30.0001C37.7831 33.8241 37.0048 37.4451 35.6004 40.1693C34.1283 42.995 32.1486 44.5517 29.9997 44.5517ZM29.9997 16.4637C28.2569 16.4637 26.5818 17.8343 25.2958 20.3047C23.9591 22.8935 23.2146 26.3284 23.2146 30.0001C23.2146 33.6718 23.9591 37.1236 25.2958 39.6955C26.5818 42.1659 28.24 43.5365 29.9997 43.5365C31.7595 43.5365 33.4177 42.1659 34.7036 39.6955C36.0403 37.1067 36.7848 33.6718 36.7848 30.0001C36.7848 26.3284 36.0403 22.8766 34.6867 20.3047C33.4177 17.8174 31.7425 16.4637 29.9997 16.4637Z" fill="#2C44FF"/>
<path d="M44.0436 30.5077H40.2703C39.9827 30.5077 39.7627 30.2877 39.7627 30C39.7627 29.7124 39.9827 29.4924 40.2703 29.4924H44.0436C44.3312 29.4924 44.5512 29.7124 44.5512 30C44.5512 30.2708 44.3143 30.5077 44.0436 30.5077Z" fill="#2C44FF"/>
<path d="M41.4887 30.5077H15.9388C15.6511 30.5077 15.4312 30.2877 15.4312 30C15.4312 29.7124 15.6511 29.4924 15.9388 29.4924H41.4887C41.7763 29.4924 41.9963 29.7124 41.9963 30C41.9963 30.2708 41.7763 30.5077 41.4887 30.5077Z" fill="#2C44FF"/>
<path d="M40.3891 39.9492C40.3045 39.9492 40.2199 39.9323 40.1522 39.8816C37.5634 38.4941 33.8578 37.6988 29.9999 37.6988C26.142 37.6988 22.4365 38.4941 19.8476 39.8816C19.5938 40.0169 19.2893 39.9154 19.1539 39.6785C19.0185 39.4247 19.1201 39.1201 19.3569 38.9848C22.0811 37.5296 25.9559 36.6836 29.983 36.6836C34.0101 36.6836 37.8849 37.5127 40.6091 38.9848C40.8629 39.1201 40.9475 39.4247 40.8121 39.6785C40.7444 39.8646 40.5752 39.9492 40.3891 39.9492Z" fill="#2C44FF"/>
<path d="M29.9996 23.2828C25.9725 23.2828 22.0977 22.4537 19.3735 20.9816C19.1197 20.8462 19.0351 20.5416 19.1705 20.2878C19.3058 20.034 19.6104 19.9494 19.8642 20.0848C22.4531 21.4723 26.1586 22.2675 30.0165 22.2675C33.8744 22.2675 37.58 21.4723 40.1688 20.1017C40.4226 19.9663 40.7272 20.0679 40.8625 20.3048C40.9979 20.5586 40.8964 20.8631 40.6595 20.9985C37.9014 22.4537 34.0267 23.2828 29.9996 23.2828Z" fill="#2C44FF"/>
<path d="M29.9998 44.5517C29.7122 44.5517 29.4922 44.3317 29.4922 44.044V23.3672C29.4922 23.0796 29.7122 22.8596 29.9998 22.8596C30.2874 22.8596 30.5074 23.0796 30.5074 23.3672V44.044C30.5074 44.3148 30.2705 44.5517 29.9998 44.5517Z" fill="#2C44FF"/>
<path d="M29.9998 24.6194C29.7122 24.6194 29.4922 24.3994 29.4922 24.1118V15.9561C29.4922 15.6685 29.7122 15.4485 29.9998 15.4485C30.2874 15.4485 30.5074 15.6685 30.5074 15.9561V24.1118C30.5074 24.3825 30.2705 24.6194 29.9998 24.6194Z" fill="#2C44FF"/>
<path d="M58.5445 25.2791L52.5039 24.467C52.0809 24.4162 51.7256 24.1116 51.6072 23.7055C51.1503 22.115 50.5073 20.5922 49.729 19.1539C49.5259 18.7817 49.5598 18.3248 49.8305 17.9864L53.5361 13.1472C53.8576 12.7072 53.8237 12.115 53.4346 11.7258L48.2738 6.5651C47.8846 6.17593 47.2755 6.14209 46.8525 6.46357L42.0132 10.1692C41.6748 10.423 41.218 10.4737 40.8457 10.2707C39.4244 9.49234 37.9016 8.84936 36.2941 8.39251C35.888 8.27407 35.5835 7.91874 35.5327 7.49572L34.7205 1.45511C34.6528 0.91366 34.1791 0.507568 33.6376 0.507568H26.3449C25.8034 0.507568 25.3466 0.91366 25.2789 1.45511L24.4667 7.49572C24.416 7.91874 24.1114 8.27407 23.7053 8.39251C22.1148 8.84936 20.5919 9.49234 19.1537 10.2707C18.7814 10.4737 18.3246 10.4399 17.9862 10.1692L13.1469 6.46357C12.707 6.14209 12.1148 6.17593 11.7256 6.5651L8.42611 9.84767L6.56485 11.7089C6.17568 12.0981 6.14184 12.7072 6.46333 13.1302L10.1689 17.9695C10.4227 18.3079 10.4735 18.7648 10.2704 19.137C9.49209 20.5583 8.84912 22.0812 8.39226 23.6886C8.27382 24.0947 7.91849 24.3993 7.49548 24.45L1.45487 25.2622C0.913416 25.3299 0.507324 25.7868 0.507324 26.3282V33.6209C0.507324 34.1624 0.913416 34.6192 1.45487 34.6869L7.49548 35.4991C7.91849 35.5499 8.27382 35.8544 8.39226 36.2605C8.84912 37.8511 9.49209 39.3739 10.2704 40.8121C10.4735 41.1844 10.4396 41.6412 10.1689 41.9796L6.46333 46.8189C6.14184 47.2419 6.17568 47.8511 6.56485 48.2402L11.7256 53.401C12.1148 53.7901 12.7239 53.824 13.1469 53.5025L17.9862 49.7969C18.3246 49.5431 18.7814 49.4923 19.1537 49.6954C20.575 50.4737 22.0978 51.1167 23.7053 51.5736C24.1114 51.692 24.416 52.0473 24.4667 52.4703L25.2789 58.5109C25.3466 59.0524 25.8034 59.4585 26.3449 59.4585H33.6376C34.1791 59.4585 34.6359 59.0524 34.7036 58.5109L35.5158 52.4703C35.5665 52.0473 35.8711 51.692 36.2772 51.5736C37.8677 51.1167 39.3906 50.4737 40.8288 49.6954C41.2011 49.4923 41.6579 49.5262 41.9963 49.7969L46.8356 53.5025C47.2586 53.824 47.8677 53.7901 48.2569 53.401L53.4176 48.2402C53.8068 47.8511 53.8407 47.2419 53.5192 46.8189L49.8136 41.9796C49.5598 41.6412 49.509 41.1844 49.7121 40.8121C50.4904 39.3908 51.1334 37.868 51.5902 36.2605C51.7087 35.8544 52.064 35.5499 52.487 35.4991L58.5276 34.6869C59.0691 34.6192 59.4752 34.1624 59.4752 33.6209V26.3282C59.4921 25.8037 59.086 25.3468 58.5445 25.2791ZM29.9997 47.7664C20.1858 47.7664 12.2332 39.8138 12.2332 30C12.2332 20.1861 20.1858 12.2335 29.9997 12.2335C39.8136 12.2335 47.7662 20.1861 47.7662 30C47.7662 39.8138 39.8136 47.7664 29.9997 47.7664Z" fill="#E3ECF7"/>
<path d="M33.6377 60H26.345C25.5497 60 24.8729 59.4078 24.7714 58.6125L23.9592 52.5719C23.9254 52.3519 23.7731 52.1658 23.5531 52.0981C21.9457 51.6244 20.3721 50.9814 18.9 50.1692C18.7139 50.0677 18.4601 50.0846 18.2909 50.22L13.4516 53.9256C12.8256 54.3993 11.9288 54.3486 11.3535 53.7902L6.19272 48.6294C5.63435 48.0711 5.56667 47.1743 6.05736 46.5313L9.76294 41.692C9.89831 41.5059 9.91523 41.269 9.81371 41.0829C9.00152 39.6108 8.35854 38.0372 7.88477 36.4298C7.81709 36.2098 7.63096 36.0575 7.411 36.0237L1.37039 35.2115C0.575127 35.11 -0.0170898 34.4332 -0.0170898 33.6379V26.3452C-0.0170898 25.5499 0.575127 24.8731 1.37039 24.7716L7.411 23.9594C7.63096 23.9256 7.81709 23.7733 7.88477 23.5533C8.35854 21.9459 9.00152 20.3722 9.81371 18.9002C9.91523 18.714 9.89831 18.4602 9.76294 18.291L6.07428 13.4518C5.60051 12.8257 5.65127 11.9289 6.20964 11.3536L11.2858 6.2775C11.4888 6.07445 11.8103 6.07445 11.9964 6.2775C12.1995 6.48054 12.1995 6.80203 11.9964 6.98816L6.9203 12.0643C6.71726 12.2673 6.70034 12.5888 6.86954 12.8257L10.5751 17.665C10.9643 18.1726 11.0151 18.8494 10.7105 19.3909C9.93215 20.7953 9.32301 22.3012 8.86616 23.824C8.69695 24.4162 8.17242 24.8562 7.54636 24.9408L1.52267 25.7868C1.23503 25.8206 1.01506 26.0745 1.01506 26.3621V33.6548C1.01506 33.9425 1.23503 34.1794 1.52267 34.2301L7.56328 35.0423C8.18934 35.1269 8.69695 35.5668 8.88308 36.1591C9.32301 37.6988 9.94907 39.1878 10.7274 40.5922C11.032 41.1337 10.9812 41.8105 10.592 42.3181L6.88646 47.1574C6.71726 47.3942 6.73418 47.7157 6.93722 47.9188L12.098 53.0795C12.301 53.2826 12.6225 53.2995 12.8594 53.1303L17.6986 49.4247C18.2063 49.0355 18.8831 48.9848 19.4245 49.2893C20.8289 50.0677 22.3349 50.6768 23.8577 51.1337C24.4499 51.3029 24.8899 51.8274 24.9745 52.4535L25.7866 58.4941C25.8205 58.7817 26.0743 59.0017 26.3619 59.0017H33.6547C33.9423 59.0017 34.1792 58.7817 34.2299 58.4941L35.0421 52.4535C35.1267 51.8274 35.5667 51.3198 36.1589 51.1337C37.6986 50.6937 39.1876 50.0677 40.592 49.2893C41.1335 48.9848 41.8103 49.0355 42.3179 49.4247L47.1572 53.1303C47.3772 53.2995 47.7156 53.2826 47.9186 53.0795L53.0794 47.9188C53.2824 47.7157 53.2993 47.3942 53.1301 47.1574L49.4245 42.3012C49.0354 41.7936 48.9846 41.1168 49.2892 40.5753C50.0675 39.1709 50.6767 37.665 51.1335 36.1421C51.3027 35.5499 51.8272 35.11 52.4533 35.0254L58.4939 34.2132C58.7816 34.1794 59.0015 33.9256 59.0015 33.6379V26.3452C59.0015 26.0575 58.7816 25.8206 58.4939 25.7699L52.4533 24.9577C51.8272 24.8731 51.3196 24.4332 51.1335 23.8409C50.6936 22.3012 50.0675 20.8122 49.2892 19.4078C48.9846 18.8663 49.0354 18.1895 49.4245 17.6819L53.1301 12.8426C53.2993 12.6058 53.2824 12.2843 53.0794 12.0812L47.9186 6.92047C47.7156 6.71743 47.3941 6.70051 47.1572 6.86971L42.301 10.5753C41.7934 10.9645 41.1166 11.0152 40.5751 10.7107C39.1707 9.93232 37.6648 9.32318 36.142 8.86633C35.5497 8.69712 35.1098 8.17259 35.0252 7.54653L34.213 1.52284C34.1792 1.23519 33.9254 1.01523 33.6377 1.01523H26.345C26.0574 1.01523 25.8036 1.23519 25.7697 1.52284L24.9575 7.56345C24.8729 8.18951 24.433 8.69712 23.8408 8.88325C22.301 9.32318 20.812 9.94924 19.4076 10.7276C18.8662 11.0321 18.1893 10.9814 17.6817 10.5922L12.8425 6.86971C12.6056 6.70051 12.2841 6.71743 12.081 6.92047C11.878 7.12352 11.5565 7.12352 11.3704 6.92047C11.1673 6.71743 11.1673 6.39594 11.3704 6.20981C11.9288 5.65144 12.8255 5.58376 13.4685 6.07445L18.3078 9.78003C18.4939 9.9154 18.7308 9.93232 18.9169 9.8308C20.389 9.01861 21.9626 8.37564 23.5701 7.90186C23.79 7.83418 23.9423 7.64805 23.9761 7.42809L24.7883 1.38748C24.8729 0.592217 25.5497 0 26.345 0H33.6377C34.433 0 35.1098 0.592217 35.2113 1.38748L36.0235 7.42809C36.0574 7.64805 36.2096 7.83418 36.4296 7.90186C38.0371 8.37564 39.6107 9.01861 41.0827 9.8308C41.2689 9.93232 41.5227 9.9154 41.6919 9.78003L46.5311 6.07445C47.1572 5.60068 48.054 5.65144 48.6293 6.20981L53.79 11.3706C54.3484 11.9289 54.4161 12.8257 53.9254 13.4687L50.2198 18.308C50.0844 18.4941 50.0675 18.731 50.169 18.9171C50.9812 20.3892 51.6242 21.9628 52.098 23.5702C52.1657 23.7902 52.3518 23.9425 52.5717 23.9763L58.6124 24.7885C59.3907 24.89 59.9998 25.5668 59.9998 26.3621V33.6548C59.9998 34.4501 59.4076 35.1269 58.6124 35.2284L52.5717 36.0406C52.3518 36.0745 52.1657 36.2267 52.098 36.4467C51.6242 38.0541 50.9812 39.6278 50.169 41.0998C50.0675 41.286 50.0844 41.5398 50.2198 41.709L53.9254 46.5482C54.3992 47.1743 54.3484 48.0711 53.79 48.6464L48.6293 53.8071C48.0709 54.3655 47.1741 54.4332 46.5311 53.9425L41.6919 50.2369C41.5058 50.1015 41.2689 50.0846 41.0827 50.1861C39.6107 50.9983 38.0371 51.6413 36.4296 52.1151C36.2096 52.1827 36.0574 52.3689 36.0235 52.5888L35.2113 58.6294C35.1098 59.4078 34.433 60 33.6377 60ZM29.9998 48.2741C19.9152 48.2741 11.7257 40.0677 11.7257 30C11.7257 19.9323 19.9321 11.7259 29.9998 11.7259C40.0675 11.7259 48.2739 19.9323 48.2739 30C48.2739 40.0677 40.0844 48.2741 29.9998 48.2741ZM29.9998 12.7242C20.4736 12.7242 12.7409 20.4738 12.7409 29.9831C12.7409 39.4924 20.4905 47.242 29.9998 47.242C39.5091 47.242 47.2587 39.4924 47.2587 29.9831C47.2587 20.4738 39.5261 12.7242 29.9998 12.7242Z" fill="#2C44FF"/>
</g>
<defs>
<clipPath id="clip0_390_706">
<rect width="60" height="60" fill="white"/>
</clipPath>
</defs>
</svg>
